<?xml version="1.0" encoding="UTF-8" standalone="no"?>
<!-- Created with Inkscape (http://www.inkscape.org/) -->

<svg
   xmlns:dc="http://purl.org/dc/elements/1.1/"
   xmlns:cc="http://creativecommons.org/ns#"
   xmlns:rdf="http://www.w3.org/1999/02/22-rdf-syntax-ns#"
   xmlns:svg="http://www.w3.org/2000/svg"
   xmlns="http://www.w3.org/2000/svg"
   xmlns:xlink="http://www.w3.org/1999/xlink"
   xmlns:sodipodi="http://sodipodi.sourceforge.net/DTD/sodipodi-0.dtd"
   xmlns:inkscape="http://www.inkscape.org/namespaces/inkscape"
   width="1031.4286"
   height="800"
   id="svg2"
   version="1.1"
   inkscape:version="0.48.5 r10040"
   sodipodi:docname="Documento nuevo 1">
  <defs
     id="defs4">
    <linearGradient
       id="linearGradient4081">
      <stop
         id="stop4083"
         offset="0"
         style="stop-color:#25e5cc;stop-opacity:1;" />
      <stop
         id="stop4085"
         offset="1"
         style="stop-color:#255dcc;stop-opacity:1;" />
    </linearGradient>
    <linearGradient
       id="linearGradient4053">
      <stop
         id="stop4055"
         offset="0"
         style="stop-color:#258bcc;stop-opacity:1;" />
      <stop
         id="stop4057"
         offset="1"
         style="stop-color:#25388b;stop-opacity:0.47115386" />
    </linearGradient>
    <linearGradient
       id="linearGradient4035">
      <stop
         style="stop-color:#258bcc;stop-opacity:1;"
         offset="0"
         id="stop4037" />
      <stop
         style="stop-color:#255dcc;stop-opacity:1;"
         offset="1"
         id="stop4039" />
    </linearGradient>
    <linearGradient
       id="linearGradient4027">
      <stop
         style="stop-color:#1664af;stop-opacity:1;"
         offset="0"
         id="stop4029" />
      <stop
         style="stop-color:#1664e7;stop-opacity:1;"
         offset="1"
         id="stop4031" />
    </linearGradient>
    <linearGradient
       id="linearGradient4019">
      <stop
         style="stop-color:#a90d3c;stop-opacity:1;"
         offset="0"
         id="stop4021" />
      <stop
         style="stop-color:#c52c65;stop-opacity:1;"
         offset="1"
         id="stop4023" />
    </linearGradient>
    <radialGradient
       inkscape:collect="always"
       xlink:href="#linearGradient4081"
       id="radialGradient4049"
       cx="401.67188"
       cy="457.125"
       fx="401.67188"
       fy="457.125"
       r="130.54688"
       gradientTransform="matrix(-1.0854651,-0.16363577,0.27682267,-1.8362814,895.1301,1362.2631)"
       gradientUnits="userSpaceOnUse" />
    <radialGradient
       inkscape:collect="always"
       xlink:href="#linearGradient4019"
       id="radialGradient4077"
       gradientUnits="userSpaceOnUse"
       gradientTransform="matrix(0.45072334,-1.5420971,0.61126167,0.17865925,386.85869,911.90488)"
       cx="226.59737"
       cy="102.66402"
       fx="226.59737"
       fy="102.66402"
       r="212.8125" />
    <radialGradient
       inkscape:collect="always"
       xlink:href="#linearGradient4035"
       id="radialGradient4079"
       gradientUnits="userSpaceOnUse"
       gradientTransform="matrix(-0.99543427,-0.09544953,0.08055381,-0.84008814,450.08614,745.28388)"
       cx="241.41965"
       cy="392.91623"
       fx="241.41965"
       fy="392.91623"
       r="212.8125" />
    <radialGradient
       inkscape:collect="always"
       xlink:href="#linearGradient4035"
       id="radialGradient4089"
       gradientUnits="userSpaceOnUse"
       gradientTransform="matrix(-0.99543427,-0.09544953,0.08055381,-0.84008814,634.08614,745.28388)"
       cx="241.41965"
       cy="392.91623"
       fx="241.41965"
       fy="392.91623"
       r="212.8125" />
    <radialGradient
       inkscape:collect="always"
       xlink:href="#linearGradient4019"
       id="radialGradient4091"
       gradientUnits="userSpaceOnUse"
       gradientTransform="matrix(0.45072334,-1.5420971,0.61126167,0.17865925,570.85869,911.90488)"
       cx="226.59737"
       cy="102.66402"
       fx="226.59737"
       fy="102.66402"
       r="212.8125" />
    <radialGradient
       inkscape:collect="always"
       xlink:href="#linearGradient4019"
       id="radialGradient4148"
       gradientUnits="userSpaceOnUse"
       gradientTransform="matrix(0.45072334,-1.5420971,0.61126167,0.17865925,386.85869,911.90488)"
       cx="226.59737"
       cy="102.66402"
       fx="226.59737"
       fy="102.66402"
       r="212.8125" />
    <radialGradient
       inkscape:collect="always"
       xlink:href="#linearGradient4035"
       id="radialGradient4150"
       gradientUnits="userSpaceOnUse"
       gradientTransform="matrix(-0.99543427,-0.09544953,0.08055381,-0.84008814,450.08614,745.28388)"
       cx="241.41965"
       cy="392.91623"
       fx="241.41965"
       fy="392.91623"
       r="212.8125" />
    <radialGradient
       inkscape:collect="always"
       xlink:href="#linearGradient4035"
       id="radialGradient4152"
       gradientUnits="userSpaceOnUse"
       gradientTransform="matrix(-0.99543427,-0.09544953,0.08055381,-0.84008814,634.08614,745.28388)"
       cx="241.41965"
       cy="392.91623"
       fx="241.41965"
       fy="392.91623"
       r="212.8125" />
    <radialGradient
       inkscape:collect="always"
       xlink:href="#linearGradient4019"
       id="radialGradient4154"
       gradientUnits="userSpaceOnUse"
       gradientTransform="matrix(0.45072334,-1.5420971,0.61126167,0.17865925,570.85869,911.90488)"
       cx="226.59737"
       cy="102.66402"
       fx="226.59737"
       fy="102.66402"
       r="212.8125" />
    <radialGradient
       inkscape:collect="always"
       xlink:href="#linearGradient4081"
       id="radialGradient4156"
       gradientUnits="userSpaceOnUse"
       gradientTransform="matrix(-1.0854651,-0.16363577,0.27682267,-1.8362814,895.1301,1362.2631)"
       cx="401.67188"
       cy="457.125"
       fx="401.67188"
       fy="457.125"
       r="130.54688" />
  </defs>
  <sodipodi:namedview
     id="base"
     pagecolor="#ffffff"
     bordercolor="#666666"
     borderopacity="1.0"
     inkscape:pageopacity="0.0"
     inkscape:pageshadow="2"
     inkscape:zoom="0.35355339"
     inkscape:cx="533.67225"
     inkscape:cy="347.23388"
     inkscape:document-units="px"
     inkscape:current-layer="layer1"
     showgrid="false"
     fit-margin-top="0"
     fit-margin-left="0"
     fit-margin-right="0"
     fit-margin-bottom="0"
     showguides="true"
     inkscape:guide-bbox="true"
     inkscape:window-width="1366"
     inkscape:window-height="705"
     inkscape:window-x="-8"
     inkscape:window-y="-8"
     inkscape:window-maximized="1">
    <sodipodi:guide
       orientation="1,0"
       position="515.71429,800.41295"
       id="guide4093" />
  </sodipodi:namedview>
  <metadata
     id="metadata7">
    <rdf:RDF>
      <cc:Work
         rdf:about="">
        <dc:format>image/svg+xml</dc:format>
        <dc:type
           rdf:resource="http://purl.org/dc/dcmitype/StillImage" />
        <dc:title></dc:title>
      </cc:Work>
    </rdf:RDF>
  </metadata>
  <g
     inkscape:label="Capa 1"
     inkscape:groupmode="layer"
     id="layer1"
     transform="translate(-88.571426,-138.07646)">
    <rect
       style="opacity:1;fill:#ffffff;fill-opacity:1;stroke:none"
       id="rect4087"
       width="1031.4286"
       height="800"
       x="88.571426"
       y="138.07646" />
    <g
       id="g4126"
       transform="translate(9.223216,32.72601)">
      <g
         transform="matrix(0.95325557,0.30216522,-0.30216522,0.95325557,334.88025,-103.78037)"
         id="g4073">
        <path
           id="path4015"
           d="m 587.76829,265.63305 c -1.26282,-0.74477 -2.50072,-1.53258 -3.78125,-2.25 -3.18496,-1.78437 -6.42851,-3.48293 -9.71875,-5.09375 -3.29024,-1.61082 -6.61063,-3.13141 -10,-4.5625 -3.38937,-1.43109 -6.83015,-2.78606 -10.3125,-4.03125 -3.48235,-1.24519 -7.02458,-2.3844 -10.59375,-3.4375 -3.56917,-1.0531 -7.16265,-2.02016 -10.8125,-2.875 -3.64985,-0.85484 -7.33813,-1.5996 -11.0625,-2.25 -3.72437,-0.6504 -7.48852,-1.18522 -11.28125,-1.625 -3.79273,-0.43978 -7.6138,-0.77702 -11.46875,-1 -3.85495,-0.22298 -7.74524,-0.34375 -11.65625,-0.34375 -3.4284,0 -6.83298,0.0784 -10.21875,0.25 -3.38577,0.17164 -6.75478,0.44212 -10.09375,0.78125 -3.33897,0.33913 -6.64948,0.74755 -9.9375,1.25 -3.28802,0.50245 -6.54834,1.08839 -9.78125,1.75 -6.46581,1.32322 -12.81087,2.97136 -19.03125,4.90625 -6.22038,1.93489 -12.30835,4.17424 -18.25,6.6875 -5.94165,2.51326 -11.74537,5.28541 -17.375,8.34375 -5.62963,3.05834 -11.09068,6.39863 -16.375,9.96875 -5.28432,3.57012 -10.40679,7.38889 -15.3125,11.4375 -4.90571,4.04861 -9.59994,8.31869 -14.09375,12.8125 -4.49381,4.49381 -8.76389,9.18804 -12.8125,14.09375 -4.04861,4.90571 -7.86738,10.02818 -11.4375,15.3125 -3.57012,5.28432 -6.91041,10.74537 -9.96875,16.375 -3.05834,5.62963 -5.83049,11.43335 -8.34375,17.375 -2.51326,5.94165 -4.75261,12.02962 -6.6875,18.25 -1.93489,6.22038 -3.58303,12.56544 -4.90625,19.03125 -0.66161,3.23291 -1.24755,6.49323 -1.75,9.78125 -0.47873,3.13278 -0.85695,6.28962 -1.1875,9.46875 9.46857,-58.72547 60.2547,-103.59375 121.65625,-103.59375 68.13722,0 123.375,55.20653 123.375,123.34375 0,0.41114 -0.0585,0.80856 -0.0625,1.21875 l 0.5,0 c -0.054,3.38179 -0.18538,6.75505 -0.40625,10.09375 -0.22087,3.3387 -0.52253,6.64593 -0.90625,9.9375 -0.76745,6.58314 -1.85532,13.0671 -3.25,19.4375 -1.39468,6.3704 -3.10408,12.62465 -5.09375,18.75 -1.98967,6.12535 -4.2601,12.12075 -6.8125,17.96875 -2.5524,5.848 -5.38588,11.5554 -8.46875,17.09375 -3.08287,5.53835 -6.41891,10.89736 -10,16.09375 -3.58109,5.19639 -7.42169,10.20913 -11.46875,15.03125 -4.04706,4.82212 -8.30048,9.45945 -12.78125,13.875 -4.48077,4.41555 -9.18028,8.61707 -14.0625,12.59375 -4.88222,3.97668 -9.96733,7.7445 -15.21875,11.25 -5.25142,3.5055 -10.66163,6.74799 -16.25,9.75 -5.58837,3.00201 -11.32569,5.75253 -17.21875,8.21875 -5.89306,2.46622 -11.9595,4.66438 -18.125,6.5625 -6.1655,1.89812 -12.43806,3.48353 -18.84375,4.78125 -6.40569,1.29772 -12.91764,2.30374 -19.53125,2.96875 -3.30681,0.33251 -6.64726,0.58173 -10,0.75 -3.35274,0.16827 -6.73036,0.25 -10.125,0.25 -6.19757,0 -12.32245,-0.2885 -18.375,-0.84375 -6.05255,-0.55525 -12.02327,-1.38282 -17.90625,-2.46875 -5.88298,-1.08593 -11.68616,-2.4392 -17.375,-4.03125 -5.68884,-1.59205 -11.27985,-3.4264 -16.75,-5.5 -5.47015,-2.0736 -10.80434,-4.37565 -16.03125,-6.90625 -5.22691,-2.5306 -10.3534,-5.28697 -15.3125,-8.25 -1.48225,-0.88563 -2.8556,-1.92091 -4.3125,-2.84375 44.82215,48.57654 109.00443,79.03125 180.3125,79.03125 135.48293,0 245.3125,-109.82956 245.3125,-245.3125 0,-65.8509 -25.9918,-125.5915 -68.21875,-169.65625 z"
           style="fill:url(#radialGradient4148);fill-opacity:1;stroke:none"
           inkscape:connector-curvature="0" />
        <path
           inkscape:connector-curvature="0"
           id="path4069"
           d="m 233.96875,605.90625 c 1.26282,0.74477 2.50072,1.53258 3.78125,2.25 3.18496,1.78437 6.42851,3.48293 9.71875,5.09375 3.29024,1.61082 6.61063,3.13141 10,4.5625 3.38937,1.43109 6.83015,2.78606 10.3125,4.03125 3.48235,1.24519 7.02458,2.3844 10.59375,3.4375 3.56917,1.0531 7.16265,2.02016 10.8125,2.875 3.64985,0.85484 7.33813,1.5996 11.0625,2.25 3.72437,0.6504 7.48852,1.18522 11.28125,1.625 3.79273,0.43978 7.6138,0.77702 11.46875,1 3.85495,0.22298 7.74524,0.34375 11.65625,0.34375 3.4284,0 6.83298,-0.0784 10.21875,-0.25 3.38577,-0.17164 6.75478,-0.44212 10.09375,-0.78125 3.33897,-0.33913 6.64948,-0.74755 9.9375,-1.25 3.28802,-0.50245 6.54834,-1.08839 9.78125,-1.75 6.46581,-1.32322 12.81087,-2.97136 19.03125,-4.90625 6.22038,-1.93489 12.30835,-4.17424 18.25,-6.6875 5.94165,-2.51326 11.74537,-5.28541 17.375,-8.34375 5.62963,-3.05834 11.09068,-6.39863 16.375,-9.96875 5.28432,-3.57012 10.40679,-7.38889 15.3125,-11.4375 4.90571,-4.04861 9.59994,-8.31869 14.09375,-12.8125 4.49381,-4.49381 8.76389,-9.18804 12.8125,-14.09375 4.04861,-4.90571 7.86738,-10.02818 11.4375,-15.3125 3.57012,-5.28432 6.91041,-10.74537 9.96875,-16.375 3.05834,-5.62963 5.83049,-11.43335 8.34375,-17.375 2.51326,-5.94165 4.75261,-12.02962 6.6875,-18.25 1.93489,-6.22038 3.58303,-12.56544 4.90625,-19.03125 0.66161,-3.23291 1.24755,-6.49323 1.75,-9.78125 0.47873,-3.13278 0.85695,-6.28962 1.1875,-9.46875 -9.46857,58.72547 -60.2547,103.59375 -121.65625,103.59375 -68.13722,0 -123.375,-55.20653 -123.375,-123.34375 0,-0.41114 0.0585,-0.80856 0.0625,-1.21875 l -0.5,0 c 0.054,-3.38179 0.18538,-6.75505 0.40625,-10.09375 0.22087,-3.3387 0.52253,-6.64593 0.90625,-9.9375 0.76745,-6.58314 1.85532,-13.0671 3.25,-19.4375 1.39468,-6.3704 3.10408,-12.62465 5.09375,-18.75 1.98967,-6.12535 4.2601,-12.12075 6.8125,-17.96875 2.5524,-5.848 5.38588,-11.5554 8.46875,-17.09375 3.08287,-5.53835 6.41891,-10.89736 10,-16.09375 3.58109,-5.19639 7.42169,-10.20913 11.46875,-15.03125 4.04706,-4.82212 8.30048,-9.45945 12.78125,-13.875 4.48077,-4.41555 9.18028,-8.61707 14.0625,-12.59375 4.88222,-3.97668 9.96733,-7.7445 15.21875,-11.25 5.25142,-3.5055 10.66163,-6.74799 16.25,-9.75 5.58837,-3.00201 11.32569,-5.75253 17.21875,-8.21875 5.89306,-2.46622 11.9595,-4.66438 18.125,-6.5625 6.1655,-1.89812 12.43806,-3.48353 18.84375,-4.78125 6.40569,-1.29772 12.91764,-2.30374 19.53125,-2.96875 3.30681,-0.33251 6.64726,-0.58173 10,-0.75 3.35274,-0.16827 6.73036,-0.25 10.125,-0.25 6.19757,0 12.32245,0.2885 18.375,0.84375 6.05255,0.55525 12.02327,1.38282 17.90625,2.46875 5.88298,1.08593 11.68616,2.4392 17.375,4.03125 5.68884,1.59205 11.27985,3.4264 16.75,5.5 5.47015,2.0736 10.80434,4.37565 16.03125,6.90625 5.22691,2.5306 10.3534,5.28697 15.3125,8.25 1.48225,0.88563 2.8556,1.92091 4.3125,2.84375 C 546.55285,221.39221 482.37057,190.9375 411.0625,190.9375 275.57957,190.9375 165.75,300.76706 165.75,436.25 c 0,65.8509 25.9918,125.5915 68.21875,169.65625 z"
           style="fill:url(#radialGradient4150);fill-opacity:1;stroke:none" />
      </g>
      <path
         inkscape:connector-curvature="0"
         id="path3808"
         d="m 417.96875,605.90625 c 1.26282,0.74477 2.50072,1.53258 3.78125,2.25 3.18496,1.78437 6.42851,3.48293 9.71875,5.09375 3.29024,1.61082 6.61063,3.13141 10,4.5625 3.38937,1.43109 6.83015,2.78606 10.3125,4.03125 3.48235,1.24519 7.02458,2.3844 10.59375,3.4375 3.56917,1.0531 7.16265,2.02016 10.8125,2.875 3.64985,0.85484 7.33813,1.5996 11.0625,2.25 3.72437,0.6504 7.48852,1.18522 11.28125,1.625 3.79273,0.43978 7.6138,0.77702 11.46875,1 3.85495,0.22298 7.74524,0.34375 11.65625,0.34375 3.4284,0 6.83298,-0.0784 10.21875,-0.25 3.38577,-0.17164 6.75478,-0.44212 10.09375,-0.78125 3.33897,-0.33913 6.64948,-0.74755 9.9375,-1.25 3.28802,-0.50245 6.54834,-1.08839 9.78125,-1.75 6.46581,-1.32322 12.81087,-2.97136 19.03125,-4.90625 6.22038,-1.93489 12.30835,-4.17424 18.25,-6.6875 5.94165,-2.51326 11.74537,-5.28541 17.375,-8.34375 5.62963,-3.05834 11.09068,-6.39863 16.375,-9.96875 5.28432,-3.57012 10.40679,-7.38889 15.3125,-11.4375 4.90571,-4.04861 9.59994,-8.31869 14.09375,-12.8125 4.49381,-4.49381 8.76389,-9.18804 12.8125,-14.09375 4.04861,-4.90571 7.86738,-10.02818 11.4375,-15.3125 3.57012,-5.28432 6.91041,-10.74537 9.96875,-16.375 3.05834,-5.62963 5.83049,-11.43335 8.34375,-17.375 2.51326,-5.94165 4.75261,-12.02962 6.6875,-18.25 1.93489,-6.22038 3.58303,-12.56544 4.90625,-19.03125 0.66161,-3.23291 1.24755,-6.49323 1.75,-9.78125 0.47873,-3.13278 0.85695,-6.28962 1.1875,-9.46875 -9.46857,58.72547 -60.2547,103.59375 -121.65625,103.59375 -68.13722,0 -123.375,-55.20653 -123.375,-123.34375 0,-0.41114 0.0585,-0.80856 0.0625,-1.21875 l -0.5,0 c 0.054,-3.38179 0.18538,-6.75505 0.40625,-10.09375 0.22087,-3.3387 0.52253,-6.64593 0.90625,-9.9375 0.76745,-6.58314 1.85532,-13.0671 3.25,-19.4375 1.39468,-6.3704 3.10408,-12.62465 5.09375,-18.75 1.98967,-6.12535 4.2601,-12.12075 6.8125,-17.96875 2.5524,-5.848 5.38588,-11.5554 8.46875,-17.09375 3.08287,-5.53835 6.41891,-10.89736 10,-16.09375 3.58109,-5.19639 7.42169,-10.20913 11.46875,-15.03125 4.04706,-4.82212 8.30048,-9.45945 12.78125,-13.875 4.48077,-4.41555 9.18028,-8.61707 14.0625,-12.59375 4.88222,-3.97668 9.96733,-7.7445 15.21875,-11.25 5.25142,-3.5055 10.66163,-6.74799 16.25,-9.75 5.58837,-3.00201 11.32569,-5.75253 17.21875,-8.21875 5.89306,-2.46622 11.9595,-4.66438 18.125,-6.5625 6.1655,-1.89812 12.43806,-3.48353 18.84375,-4.78125 6.40569,-1.29772 12.91764,-2.30374 19.53125,-2.96875 3.30681,-0.33251 6.64726,-0.58173 10,-0.75 3.35274,-0.16827 6.73036,-0.25 10.125,-0.25 6.19757,0 12.32245,0.2885 18.375,0.84375 6.05255,0.55525 12.02327,1.38282 17.90625,2.46875 5.88298,1.08593 11.68616,2.4392 17.375,4.03125 5.68884,1.59205 11.27985,3.4264 16.75,5.5 5.47015,2.0736 10.80434,4.37565 16.03125,6.90625 5.22691,2.5306 10.3534,5.28697 15.3125,8.25 1.48225,0.88563 2.8556,1.92091 4.3125,2.84375 C 730.55285,221.39221 666.37057,190.9375 595.0625,190.9375 459.57957,190.9375 349.75,300.76706 349.75,436.25 c 0,65.8509 25.9918,125.5915 68.21875,169.65625 z"
         style="fill:url(#radialGradient4152);fill-opacity:1;stroke:none" />
      <path
         inkscape:connector-curvature="0"
         id="path3932"
         d="m 713.96875,466.34375 c 0.48814,-1.90946 1.0709,-3.77476 1.46875,-5.71875 0.33557,-1.63966 0.51146,-3.33731 0.78125,-5 0.004,-0.0413 -0.004,-0.0837 0,-0.125 -0.59179,3.67034 -1.34292,7.28924 -2.25,10.84375 z"
         style="fill:#000080;stroke:none" />
      <path
         inkscape:connector-curvature="0"
         id="path3930"
         d="m 706.75,486.875 c 0.47652,-1.04364 1.05198,-2.03474 1.5,-3.09375 1.5608,-3.68935 2.95464,-7.48113 4.15625,-11.34375 0.61985,-1.99252 1.0424,-4.05928 1.5625,-6.09375 -1.81417,7.10902 -4.23334,13.9764 -7.21875,20.53125 z"
         style="fill:#000080;stroke:none" />
      <path
         inkscape:connector-curvature="0"
         id="path3928"
         d="m 676.375,527.90625 c 1.82827,-1.62345 3.70888,-3.20949 5.4375,-4.9375 2.79082,-2.78985 5.42317,-5.70431 7.9375,-8.75 2.51433,-3.04569 4.90784,-6.21911 7.125,-9.5 2.21716,-3.28089 4.25694,-6.66081 6.15625,-10.15625 1.35412,-2.49209 2.53519,-5.09534 3.71875,-7.6875 -7.17491,15.75342 -17.6138,29.66934 -30.375,41.03125 z"
         style="fill:#000080;stroke:none" />
      <path
         inkscape:connector-curvature="0"
         id="path3926"
         d="m 669.28125,533.75 c 1.24225,-0.94821 2.54548,-1.81882 3.75,-2.8125 0.50012,-0.41258 0.94404,-0.89224 1.4375,-1.3125 -1.67832,1.43289 -3.43311,2.78257 -5.1875,4.125 z"
         style="fill:#000080;stroke:none" />
      <path
         inkscape:connector-curvature="0"
         id="path3924"
         d="m 660.28125,540 c 1.07117,-0.67638 2.20144,-1.26064 3.25,-1.96875 0.56225,-0.37969 1.0694,-0.83009 1.625,-1.21875 -1.58506,1.1115 -3.23636,2.15005 -4.875,3.1875 z"
         style="fill:#000080;stroke:none" />
      <path
         inkscape:connector-curvature="0"
         id="path3922"
         d="m 650.59375,545.5625 c 0.91607,-0.46809 1.87861,-0.85362 2.78125,-1.34375 0.8083,-0.43891 1.54648,-0.98118 2.34375,-1.4375 -1.68715,0.96814 -3.38879,1.89195 -5.125,2.78125 z"
         style="fill:#000080;stroke:none" />
      <path
         inkscape:connector-curvature="0"
         id="path3920"
         d="m 640.1875,550.28125 c 0.79019,-0.31487 1.6242,-0.54437 2.40625,-0.875 0.94399,-0.39909 1.81819,-0.92201 2.75,-1.34375 -1.70275,0.77227 -3.41308,1.5228 -5.15625,2.21875 z"
         style="fill:#000080;stroke:none" />
      <path
         inkscape:connector-curvature="0"
         id="path3918"
         d="m 629.3125,554.0625 c 0.63821,-0.18707 1.30363,-0.30294 1.9375,-0.5 1.24562,-0.38724 2.4279,-0.91845 3.65625,-1.34375 -1.84999,0.64155 -3.70473,1.28912 -5.59375,1.84375 z"
         style="fill:#000080;stroke:none" />
      <path
         inkscape:connector-curvature="0"
         id="path3916"
         d="m 618.28125,556.78125 c 0.38081,-0.0741 0.7767,-0.10987 1.15625,-0.1875 1.28531,-0.26288 2.51084,-0.66625 3.78125,-0.96875 -1.64226,0.39174 -3.27031,0.83101 -4.9375,1.15625 z"
         style="fill:#000080;stroke:none" />
      <path
         inkscape:connector-curvature="0"
         id="path3914"
         d="m 606.3125,558.5 c 0.28783,-0.0272 0.58775,-0.002 0.875,-0.0312 1.42887,-0.14503 2.80472,-0.4629 4.21875,-0.65625 -1.69747,0.23255 -3.3748,0.52481 -5.09375,0.6875 z"
         style="fill:#000080;stroke:none" />
      <path
         id="path4071"
         d="m 771.76829,265.63305 c -1.26282,-0.74477 -2.50072,-1.53258 -3.78125,-2.25 -3.18496,-1.78437 -6.42851,-3.48293 -9.71875,-5.09375 -3.29024,-1.61082 -6.61063,-3.13141 -10,-4.5625 -3.38937,-1.43109 -6.83015,-2.78606 -10.3125,-4.03125 -3.48235,-1.24519 -7.02458,-2.3844 -10.59375,-3.4375 -3.56917,-1.0531 -7.16265,-2.02016 -10.8125,-2.875 -3.64985,-0.85484 -7.33813,-1.5996 -11.0625,-2.25 -3.72437,-0.6504 -7.48852,-1.18522 -11.28125,-1.625 -3.79273,-0.43978 -7.6138,-0.77702 -11.46875,-1 -3.85495,-0.22298 -7.74524,-0.34375 -11.65625,-0.34375 -3.4284,0 -6.83298,0.0784 -10.21875,0.25 -3.38577,0.17164 -6.75478,0.44212 -10.09375,0.78125 -3.33897,0.33913 -6.64948,0.74755 -9.9375,1.25 -3.28802,0.50245 -6.54834,1.08839 -9.78125,1.75 -6.46581,1.32322 -12.81087,2.97136 -19.03125,4.90625 -6.22038,1.93489 -12.30835,4.17424 -18.25,6.6875 -5.94165,2.51326 -11.74537,5.28541 -17.375,8.34375 -5.62963,3.05834 -11.09068,6.39863 -16.375,9.96875 -5.28432,3.57012 -10.40679,7.38889 -15.3125,11.4375 -4.90571,4.04861 -9.59994,8.31869 -14.09375,12.8125 -4.49381,4.49381 -8.76389,9.18804 -12.8125,14.09375 -4.04861,4.90571 -7.86738,10.02818 -11.4375,15.3125 -3.57012,5.28432 -6.91041,10.74537 -9.96875,16.375 -3.05834,5.62963 -5.83049,11.43335 -8.34375,17.375 -2.51326,5.94165 -4.75261,12.02962 -6.6875,18.25 -1.93489,6.22038 -3.58303,12.56544 -4.90625,19.03125 -0.66161,3.23291 -1.24755,6.49323 -1.75,9.78125 -0.47873,3.13278 -0.85695,6.28962 -1.1875,9.46875 9.46857,-58.72547 60.2547,-103.59375 121.65625,-103.59375 68.13722,0 123.375,55.20653 123.375,123.34375 0,0.41114 -0.0585,0.80856 -0.0625,1.21875 l 0.5,0 c -0.054,3.38179 -0.18538,6.75505 -0.40625,10.09375 -0.22087,3.3387 -0.52253,6.64593 -0.90625,9.9375 -0.76745,6.58314 -1.85532,13.0671 -3.25,19.4375 -1.39468,6.3704 -3.10408,12.62465 -5.09375,18.75 -1.98967,6.12535 -4.2601,12.12075 -6.8125,17.96875 -2.5524,5.848 -5.38588,11.5554 -8.46875,17.09375 -3.08287,5.53835 -6.41891,10.89736 -10,16.09375 -3.58109,5.19639 -7.42169,10.20913 -11.46875,15.03125 -4.04706,4.82212 -8.30048,9.45945 -12.78125,13.875 -4.48077,4.41555 -9.18028,8.61707 -14.0625,12.59375 -4.88222,3.97668 -9.96733,7.7445 -15.21875,11.25 -5.25142,3.5055 -10.66163,6.74799 -16.25,9.75 -5.58837,3.00201 -11.32569,5.75253 -17.21875,8.21875 -5.89306,2.46622 -11.9595,4.66438 -18.125,6.5625 -6.1655,1.89812 -12.43806,3.48353 -18.84375,4.78125 -6.40569,1.29772 -12.91764,2.30374 -19.53125,2.96875 -3.30681,0.33251 -6.64726,0.58173 -10,0.75 -3.35274,0.16827 -6.73036,0.25 -10.125,0.25 -6.19757,0 -12.32245,-0.2885 -18.375,-0.84375 -6.05255,-0.55525 -12.02327,-1.38282 -17.90625,-2.46875 -5.88298,-1.08593 -11.68616,-2.4392 -17.375,-4.03125 -5.68884,-1.59205 -11.27985,-3.4264 -16.75,-5.5 -5.47015,-2.0736 -10.80434,-4.37565 -16.03125,-6.90625 -5.22691,-2.5306 -10.3534,-5.28697 -15.3125,-8.25 -1.48225,-0.88563 -2.8556,-1.92091 -4.3125,-2.84375 44.82215,48.57654 109.00443,79.03125 180.3125,79.03125 135.48293,0 245.3125,-109.82956 245.3125,-245.3125 0,-65.8509 -25.9918,-125.5915 -68.21875,-169.65625 z"
         style="fill:url(#radialGradient4154);fill-opacity:1;stroke:none"
         inkscape:connector-curvature="0" />
      <path
         inkscape:connector-curvature="0"
         id="path3912"
         d="m 499.53125,335.0625 c -3.40049,3.21411 -6.64729,6.59342 -9.71875,10.125 -3.08113,3.5427 -5.99596,7.22582 -8.71875,11.0625 -2.72279,3.83668 -5.25657,7.83237 -7.59375,11.9375 -2.33718,4.10513 -4.48195,8.33946 -6.40625,12.6875 -1.9243,4.34804 -3.60962,8.80958 -5.09375,13.375 -1.48413,4.56542 -2.76455,9.21149 -3.78125,13.96875 -1.0167,4.75726 -1.79051,9.60768 -2.3125,14.53125 -0.52199,4.92357 -0.78125,9.93565 -0.78125,15 0,4.88215 0.23589,9.71401 0.71875,14.46875 0.48286,4.75474 1.21422,9.42761 2.15625,14.03125 0.94203,4.60364 2.09125,9.13366 3.46875,13.5625 1.3775,4.42884 2.99198,8.76966 4.78125,13 1.78927,4.23034 3.76016,8.3356 5.9375,12.34375 2.17734,4.00815 4.55203,7.92524 7.09375,11.6875 2.54172,3.76226 5.27385,7.38233 8.15625,10.875 2.8824,3.49267 5.92561,6.83187 9.125,10.03125 3.19939,3.19938 6.53858,6.2426 10.03125,9.125 3.49267,2.8824 7.11274,5.61453 10.875,8.15625 3.76226,2.54172 7.67935,4.91641 11.6875,7.09375 4.00815,2.17734 8.11341,4.14823 12.34375,5.9375 4.23034,1.78927 8.57116,3.40375 13,4.78125 4.42884,1.3775 8.95886,2.52672 13.5625,3.46875 4.60364,0.94203 9.27651,1.67339 14.03125,2.15625 4.75474,0.48286 9.5866,0.71875 14.46875,0.71875 4.88215,0 9.71401,-0.23589 14.46875,-0.71875 4.75474,-0.48286 9.42761,-1.21422 14.03125,-2.15625 4.60364,-0.94203 9.13366,-2.09125 13.5625,-3.46875 4.42884,-1.3775 8.76966,-2.99198 13,-4.78125 4.23034,-1.78927 8.3356,-3.76016 12.34375,-5.9375 4.00815,-2.17734 7.92524,-4.55203 11.6875,-7.09375 0.63656,-0.43005 1.21463,-0.93492 1.84375,-1.375 1.96412,-2.62347 4.03974,-5.15853 5.875,-7.875 3.57012,-5.28432 6.91041,-10.74537 9.96875,-16.375 3.05834,-5.62963 5.83049,-11.43335 8.34375,-17.375 2.51326,-5.94165 4.75261,-12.02962 6.6875,-18.25 1.93489,-6.22038 3.58303,-12.56544 4.90625,-19.03125 0.66161,-3.23291 1.24755,-6.49323 1.75,-9.78125 0.47251,-3.09206 0.86001,-6.20651 1.1875,-9.34375 -0.26979,1.66269 -0.44568,3.36034 -0.78125,5 -0.39785,1.94399 -0.98061,3.80929 -1.46875,5.71875 -0.5201,2.03447 -0.94265,4.10123 -1.5625,6.09375 -1.20161,3.86262 -2.59545,7.6544 -4.15625,11.34375 -0.44802,1.05901 -1.02348,2.05011 -1.5,3.09375 -1.18356,2.59216 -2.36463,5.19541 -3.71875,7.6875 -1.89931,3.49544 -3.93909,6.87536 -6.15625,10.15625 -2.21716,3.28089 -4.61067,6.45431 -7.125,9.5 -2.51433,3.04569 -5.14668,5.96015 -7.9375,8.75 -1.72862,1.72801 -3.60923,3.31405 -5.4375,4.9375 -0.64075,0.57049 -1.25362,1.16156 -1.90625,1.71875 -0.49346,0.42026 -0.93738,0.89992 -1.4375,1.3125 -1.20452,0.99368 -2.50775,1.86429 -3.75,2.8125 -1.35941,1.0402 -2.72182,2.07854 -4.125,3.0625 -0.5556,0.38866 -1.06275,0.83906 -1.625,1.21875 -1.04856,0.70811 -2.17883,1.29237 -3.25,1.96875 -1.50461,0.95259 -3.01466,1.89305 -4.5625,2.78125 -0.79727,0.45632 -1.53545,0.99859 -2.34375,1.4375 -0.90264,0.49013 -1.86518,0.87566 -2.78125,1.34375 -1.72645,0.8843 -3.47742,1.69606 -5.25,2.5 -0.93181,0.42174 -1.80601,0.94466 -2.75,1.34375 -0.78205,0.33063 -1.61606,0.56013 -2.40625,0.875 -1.73778,0.6938 -3.50538,1.32165 -5.28125,1.9375 -1.22835,0.4253 -2.41063,0.95651 -3.65625,1.34375 -0.63387,0.19706 -1.29929,0.31293 -1.9375,0.5 -2.00318,0.58815 -4.0494,1.07485 -6.09375,1.5625 -1.27041,0.3025 -2.49594,0.70587 -3.78125,0.96875 -0.37955,0.0776 -0.77544,0.11337 -1.15625,0.1875 -2.26058,0.441 -4.57173,0.7157 -6.875,1.03125 -1.41403,0.19335 -2.78988,0.51122 -4.21875,0.65625 -0.28725,0.0292 -0.58717,0.004 -0.875,0.0312 -3.87092,0.36637 -7.78214,0.59375 -11.75,0.59375 -68.13722,0 -123.375,-55.20653 -123.375,-123.34375 0,-0.41114 0.0585,-0.80856 0.0625,-1.21875 l -0.5,0 c 0.054,-3.38179 0.18538,-6.75505 0.40625,-10.09375 0.22087,-3.3387 0.52253,-6.64593 0.90625,-9.9375 0.76745,-6.58314 1.85532,-13.0671 3.25,-19.4375 1.39468,-6.3704 3.10408,-12.62465 5.09375,-18.75 1.98967,-6.12535 4.2601,-12.12075 6.8125,-17.96875 2.5524,-5.848 5.38588,-11.5554 8.46875,-17.09375 1.18518,-2.12917 2.5842,-4.11039 3.84375,-6.1875 z"
         style="opacity:0.8408163;fill:url(#radialGradient4156);fill-opacity:1;stroke:none" />
      <path
         inkscape:connector-curvature="0"
         id="path4009"
         d="m 418.68304,605.54911 c 44.65161,46.59494 107.46171,75.65625 177.09375,75.65625 67.7891,0 129.1621,-27.48944 173.5625,-71.9375 -1.56291,0.90522 -3.03551,1.94904 -4.625,2.8125 -5.62933,3.05804 -11.43361,5.83075 -17.375,8.34375 -5.94139,2.513 -12.02983,4.75283 -18.25,6.6875 -6.22017,1.93467 -12.56559,3.58318 -19.03125,4.90625 -3.23283,0.66153 -6.49329,1.24761 -9.78125,1.75 -3.28796,0.50239 -6.59857,0.91091 -9.9375,1.25 -3.33893,0.33909 -6.70801,0.60963 -10.09375,0.78125 -3.38574,0.17162 -6.79035,0.25 -10.21875,0.25 -3.4284,0 -6.83301,-0.0784 -10.21875,-0.25 -3.38574,-0.17162 -6.75482,-0.44216 -10.09375,-0.78125 -3.33893,-0.33909 -6.64954,-0.74761 -9.9375,-1.25 -3.28796,-0.50239 -6.54842,-1.08847 -9.78125,-1.75 -6.46566,-1.32307 -12.81108,-2.97158 -19.03125,-4.90625 -6.22017,-1.93467 -12.30861,-4.1745 -18.25,-6.6875 -0.64194,-0.27152 -1.23631,-0.62864 -1.875,-0.90625 -4.10352,1.58791 -8.17587,3.24661 -12.40625,4.5625 -6.22038,1.93489 -12.56544,3.58303 -19.03125,4.90625 -3.23291,0.66161 -6.49323,1.24755 -9.78125,1.75 -3.28802,0.50245 -6.59853,0.91087 -9.9375,1.25 -3.33897,0.33913 -6.70798,0.60961 -10.09375,0.78125 -3.38577,0.17164 -6.79035,0.25 -10.21875,0.25 -3.91101,0 -7.8013,-0.12077 -11.65625,-0.34375 -3.85495,-0.22298 -7.67602,-0.56022 -11.46875,-1 -3.79273,-0.43978 -7.55688,-0.9746 -11.28125,-1.625 -3.72437,-0.6504 -7.41265,-1.39516 -11.0625,-2.25 -3.64985,-0.85484 -7.24333,-1.8219 -10.8125,-2.875 -3.56917,-1.0531 -7.1114,-2.19231 -10.59375,-3.4375 -3.48235,-1.24519 -6.92313,-2.60016 -10.3125,-4.03125 -3.38937,-1.43109 -6.70976,-2.95168 -10,-4.5625 -3.29024,-1.61082 -6.53379,-3.30938 -9.71875,-5.09375 -1.28053,-0.71742 -2.51843,-1.50523 -3.78125,-2.25 z"
         style="fill:#981946;fill-opacity:1;stroke:none" />
      <path
         inkscape:connector-curvature="0"
         id="path4007"
         d="m 407.0625,593.78125 c 3.49703,4.16895 7.14389,8.1989 10.90625,12.125 -3.75002,-3.91322 -7.35665,-7.97122 -10.84375,-12.125 l -0.0625,0 z"
         style="fill:#cccccc;stroke:none" />
      <path
         inkscape:connector-curvature="0"
         style="fill:#145190;fill-opacity:1;stroke:none"
         d="m 418.68304,267.5625 c 44.65161,-46.59494 107.46171,-75.65625 177.09375,-75.65625 67.7891,0 129.1621,27.48944 173.5625,71.9375 -1.56291,-0.90522 -3.03551,-1.94904 -4.625,-2.8125 -5.62933,-3.05804 -11.43361,-5.83075 -17.375,-8.34375 -5.94139,-2.513 -12.02983,-4.75283 -18.25,-6.6875 -6.22017,-1.93467 -12.56559,-3.58318 -19.03125,-4.90625 -3.23283,-0.66153 -6.49329,-1.24761 -9.78125,-1.75 -3.28796,-0.50239 -6.59857,-0.91091 -9.9375,-1.25 -3.33893,-0.33909 -6.70801,-0.60963 -10.09375,-0.78125 -3.38574,-0.17162 -6.79035,-0.25 -10.21875,-0.25 -3.4284,0 -6.83301,0.0784 -10.21875,0.25 -3.38574,0.17162 -6.75482,0.44216 -10.09375,0.78125 -3.33893,0.33909 -6.64954,0.74761 -9.9375,1.25 -3.28796,0.50239 -6.54842,1.08847 -9.78125,1.75 -6.46566,1.32307 -12.81108,2.97158 -19.03125,4.90625 -6.22017,1.93467 -12.30861,4.1745 -18.25,6.6875 -0.64194,0.27152 -1.23631,0.62864 -1.875,0.90625 -4.10352,-1.58791 -8.17587,-3.24661 -12.40625,-4.5625 -6.22038,-1.93489 -12.56544,-3.58303 -19.03125,-4.90625 -3.23291,-0.66161 -6.49323,-1.24755 -9.78125,-1.75 -3.28802,-0.50245 -6.59853,-0.91087 -9.9375,-1.25 -3.33897,-0.33913 -6.70798,-0.60961 -10.09375,-0.78125 -3.38577,-0.17164 -6.79035,-0.25 -10.21875,-0.25 -3.91101,0 -7.8013,0.12077 -11.65625,0.34375 -3.85495,0.22298 -7.67602,0.56022 -11.46875,1 -3.79273,0.43978 -7.55688,0.9746 -11.28125,1.625 -3.72437,0.6504 -7.41265,1.39516 -11.0625,2.25 -3.64985,0.85484 -7.24333,1.8219 -10.8125,2.875 -3.56917,1.0531 -7.1114,2.19231 -10.59375,3.4375 -3.48235,1.24519 -6.92313,2.60016 -10.3125,4.03125 -3.38937,1.43109 -6.70976,2.95168 -10,4.5625 -3.29024,1.61082 -6.53379,3.30938 -9.71875,5.09375 -1.28053,0.71742 -2.51843,1.50523 -3.78125,2.25 z"
         id="path4013" />
      <path
         inkscape:connector-curvature="0"
         style="fill:#911245;fill-opacity:1;stroke:none"
         d="m 690.88359,537.08594 c 3.40049,-3.21411 6.64729,-6.59341 9.71875,-10.125 3.08112,-3.5427 5.99596,-7.22582 8.71875,-11.0625 2.72278,-3.83668 5.25657,-7.83237 7.59375,-11.9375 2.33718,-4.10512 4.48194,-8.33945 6.40625,-12.6875 1.9243,-4.34804 3.60962,-8.80957 5.09375,-13.375 1.48413,-4.56542 2.76454,-9.21149 3.78125,-13.96875 1.0167,-4.75725 1.7905,-9.60768 2.3125,-14.53125 0.52199,-4.92356 0.78125,-9.93565 0.78125,-15 0,-4.88215 -0.23589,-9.714 -0.71875,-14.46875 -0.48287,-4.75474 -1.21422,-9.42761 -2.15625,-14.03125 -0.94203,-4.60363 -2.09125,-9.13366 -3.46875,-13.5625 -1.3775,-4.42883 -2.99198,-8.76966 -4.78125,-13 -1.78927,-4.23034 -3.76016,-8.3356 -5.9375,-12.34375 -2.17735,-4.00815 -4.55203,-7.92524 -7.09375,-11.6875 -2.54172,-3.76225 -5.27385,-7.38233 -8.15625,-10.875 -2.88241,-3.49266 -5.92561,-6.83186 -9.125,-10.03125 -3.19939,-3.19938 -6.53859,-6.2426 -10.03125,-9.125 -3.49267,-2.88239 -7.11274,-5.61452 -10.875,-8.15625 -3.76227,-2.54172 -7.67935,-4.91641 -11.6875,-7.09375 -4.00815,-2.17733 -8.11341,-4.14823 -12.34375,-5.9375 -4.23034,-1.78927 -8.57117,-3.40374 -13,-4.78125 -4.42884,-1.3775 -8.95887,-2.52671 -13.5625,-3.46875 -4.60364,-0.94203 -9.27651,-1.67339 -14.03125,-2.15625 -4.75475,-0.48285 -9.5866,-0.71875 -14.46875,-0.71875 -4.88216,0 -9.71401,0.2359 -14.46875,0.71875 -4.75475,0.48286 -9.42762,1.21422 -14.03125,2.15625 -4.60364,0.94204 -9.13367,2.09125 -13.5625,3.46875 -4.42885,1.37751 -8.76966,2.99198 -13,4.78125 -4.23035,1.78927 -8.3356,3.76017 -12.34375,5.9375 -4.00815,2.17734 -7.92525,4.55203 -11.6875,7.09375 -0.63656,0.43006 -1.21463,0.93493 -1.84375,1.375 -1.96412,2.62347 -4.03974,5.15854 -5.875,7.875 -3.57012,5.28432 -6.91041,10.74537 -9.96875,16.375 -3.05835,5.62964 -5.8305,11.43336 -8.34375,17.375 -2.51326,5.94165 -4.75261,12.02963 -6.6875,18.25 -1.93489,6.22038 -3.58303,12.56545 -4.90625,19.03125 -0.66161,3.23291 -1.24756,6.49323 -1.75,9.78125 -0.47252,3.09206 -0.86001,6.20651 -1.1875,9.34375 0.26978,-1.66269 0.44568,-3.36034 0.78125,-5 0.39784,-1.94398 0.9806,-3.80928 1.46875,-5.71875 0.52009,-2.03447 0.94264,-4.10122 1.5625,-6.09375 1.2016,-3.86262 2.59545,-7.6544 4.15625,-11.34375 0.44802,-1.05901 1.02347,-2.05011 1.5,-3.09375 1.18356,-2.59215 2.36463,-5.1954 3.71875,-7.6875 1.89931,-3.49543 3.93908,-6.87536 6.15625,-10.15625 2.21715,-3.28089 4.61067,-6.45431 7.125,-9.5 2.51432,-3.04569 5.14668,-5.96015 7.9375,-8.75 1.72861,-1.72801 3.60923,-3.31404 5.4375,-4.9375 0.64075,-0.57048 1.25361,-1.16156 1.90625,-1.71875 0.49346,-0.42025 0.93738,-0.89991 1.4375,-1.3125 1.20452,-0.99368 2.50774,-1.86428 3.75,-2.8125 1.35941,-1.0402 2.72181,-2.07853 4.125,-3.0625 0.5556,-0.38865 1.06275,-0.83906 1.625,-1.21875 1.04855,-0.70811 2.17883,-1.29237 3.25,-1.96875 1.5046,-0.95258 3.01466,-1.89305 4.5625,-2.78125 0.79727,-0.45632 1.53545,-0.99859 2.34375,-1.4375 0.90264,-0.49013 1.86518,-0.87566 2.78125,-1.34375 1.72645,-0.8843 3.47741,-1.69606 5.25,-2.5 0.93181,-0.42174 1.80601,-0.94466 2.75,-1.34375 0.78205,-0.33063 1.61606,-0.56012 2.40625,-0.875 1.73777,-0.6938 3.50538,-1.32164 5.28125,-1.9375 1.22834,-0.4253 2.41063,-0.9565 3.65625,-1.34375 0.63387,-0.19705 1.29928,-0.31293 1.9375,-0.5 2.00317,-0.58815 4.0494,-1.07484 6.09375,-1.5625 1.27041,-0.3025 2.49594,-0.70587 3.78125,-0.96875 0.37955,-0.0776 0.77544,-0.11337 1.15625,-0.1875 2.26058,-0.441 4.57173,-0.71569 6.875,-1.03125 1.41403,-0.19335 2.78987,-0.51121 4.21875,-0.65625 0.28724,-0.0292 0.58717,-0.004 0.875,-0.0312 3.87092,-0.36636 7.78214,-0.59375 11.75,-0.59375 68.13722,0 123.375,55.20653 123.375,123.34375 0,0.41114 -0.0585,0.80856 -0.0625,1.21875 l 0.5,0 c -0.054,3.3818 -0.18538,6.75505 -0.40625,10.09375 -0.22087,3.33871 -0.52254,6.64594 -0.90625,9.9375 -0.76745,6.58315 -1.85532,13.0671 -3.25,19.4375 -1.39468,6.37041 -3.10408,12.62465 -5.09375,18.75 -1.98967,6.12536 -4.26011,12.12075 -6.8125,17.96875 -2.5524,5.84801 -5.38588,11.5554 -8.46875,17.09375 -1.18518,2.12917 -2.5842,4.1104 -3.84375,6.1875 z"
         id="path4017" />
    </g>
    <g
       transform="matrix(1.0646382,0,0,0.93928622,6.5329616,0)"
       style="font-size:12.55829716px;font-style:normal;font-variant:normal;font-weight:normal;font-stretch:normal;text-align:center;line-height:125%;letter-spacing:0px;word-spacing:0px;text-anchor:middle;fill:#1761b3;fill-opacity:1;stroke:none;font-family:MS Reference Sans Serif;-inkscape-font-specification:MS Reference Sans Serif"
       id="text4059">
      <path
         d="m 477.39972,851.65451 c -4e-5,2.51318 -0.4755,4.73201 -1.42639,6.6565 -0.95097,1.9245 -2.23019,3.50938 -3.83768,4.75464 -1.90189,1.49432 -3.99054,2.55845 -6.26594,3.19241 -2.27547,0.63395 -5.16787,0.95092 -8.67722,0.95092 l -17.9318,0 0,-50.56903 14.97713,0 c 3.69048,5e-5 6.4527,0.1359 8.28666,0.40754 1.8339,0.27174 3.58859,0.83777 5.26407,1.69809 1.85654,0.97361 3.20369,2.22454 4.04145,3.75277 0.83768,1.52832 1.25654,3.35659 1.25658,5.48482 -4e-5,2.4 -0.61135,4.44336 -1.83393,6.1301 -1.22266,1.68679 -2.85282,3.0396 -4.89049,4.05842 l 0,0.2717 c 3.41878,0.7019 6.11307,2.20188 8.08289,4.49993 1.96974,2.2981 2.95463,5.20182 2.95467,8.71119 z m -11.30926,-22.78833 c -3e-5,-1.22259 -0.2038,-2.25276 -0.61131,-3.09052 -0.40757,-0.83768 -1.06416,-1.51692 -1.96978,-2.03771 -1.06416,-0.61126 -2.35471,-0.9905 -3.87164,-1.13772 -1.51698,-0.14712 -3.3962,-0.2207 -5.63765,-0.22075 l -8.01497,0 0,14.60355 8.69421,0 c 2.1056,3e-5 3.78105,-0.10751 5.02634,-0.32263 1.24523,-0.21506 2.39993,-0.66223 3.46409,-1.34149 1.06411,-0.6792 1.81692,-1.55655 2.25846,-2.63204 0.44147,-1.07542 0.66222,-2.34898 0.66225,-3.82069 z m 4.31315,23.06002 c -4e-5,-2.03769 -0.3057,-3.65653 -0.91697,-4.85653 -0.61135,-1.19996 -1.72077,-2.21881 -3.32825,-3.05656 -1.08681,-0.566 -2.40566,-0.93392 -3.95655,-1.10375 -1.55094,-0.16979 -3.43582,-0.25469 -5.65463,-0.25472 l -10.5621,0 0,18.81481 8.89798,0 c 2.94332,10e-6 5.35461,-0.15282 7.23385,-0.45848 1.87918,-0.30565 3.41878,-0.86602 4.6188,-1.68111 1.26787,-0.883 2.19615,-1.89053 2.78486,-3.0226 0.58863,-1.13204 0.88297,-2.59239 0.88301,-4.38106 z"
         style="font-size:69.5536499px;fill:#1761b3"
         id="path4116"
         inkscape:connector-curvature="0" />
      <path
         d="m 526.81406,867.20898 -7.16593,0 -4.95841,-14.09412 -21.87136,0 -4.95842,14.09412 -6.82631,0 18.40727,-50.56903 8.9659,0 z m -14.19601,-19.86762 -8.86401,-24.82603 -8.89798,24.82603 z"
         style="font-size:69.5536499px;fill:#1761b3"
         id="path4118"
         inkscape:connector-curvature="0" />
      <path
         d="m 573.06996,867.20898 -8.32063,0 -23.97699,-45.23704 0,45.23704 -6.28292,0 0,-50.56903 10.42625,0 21.87136,41.29748 0,-41.29748 6.28293,0 z"
         style="font-size:69.5536499px;fill:#1761b3"
         id="path4120"
         inkscape:connector-curvature="0" />
      <path
         d="m 625.57481,863.54112 c -1.24531,0.54339 -2.37171,1.05281 -3.37919,1.52827 -1.00758,0.47547 -2.32642,0.97358 -3.95655,1.49432 -1.38115,0.43018 -2.88112,0.7981 -4.49993,1.10376 -1.61887,0.30565 -3.40186,0.45848 -5.34897,0.45848 -3.6679,0 -7.0018,-0.51509 -10.00174,-1.54526 -2.99997,-1.03017 -5.60936,-2.64335 -7.82818,-4.83955 -2.17356,-2.1509 -3.87164,-4.88482 -5.09426,-8.20176 -1.22263,-3.31691 -1.83394,-7.17156 -1.83393,-11.56397 -10e-6,-4.16595 0.58866,-7.89041 1.76601,-11.17341 1.17733,-3.28293 2.87542,-6.05647 5.09426,-8.32063 2.1509,-2.19615 4.74897,-3.87159 7.79422,-5.02634 3.04521,-1.15465 6.4244,-1.732 10.13758,-1.73205 2.71691,5e-5 5.42818,0.32835 8.13384,0.98489 2.70558,0.65665 5.71119,1.81134 9.01684,3.4641 l 0,7.98101 -0.50943,0 c -2.7849,-2.332 -5.54712,-4.03008 -8.28666,-5.09426 -2.73962,-1.06409 -5.67164,-1.59616 -8.79609,-1.5962 -2.55848,4e-5 -4.86222,0.41324 -6.91122,1.2396 -2.04904,0.82645 -3.87731,2.11133 -5.48482,3.85466 -1.56225,1.69812 -2.77922,3.84337 -3.65089,6.43575 -0.87169,2.59244 -1.30754,5.58673 -1.30752,8.98288 -2e-5,3.55468 0.48111,6.61124 1.44337,9.16967 0.96224,2.55846 2.20184,4.64145 3.71881,6.24896 1.58486,1.67545 3.43578,2.91506 5.55275,3.71881 2.11692,0.80377 4.35273,1.20565 6.70744,1.20564 3.23765,10e-6 6.27157,-0.5547 9.10175,-1.66412 2.8301,-1.10941 5.47912,-2.77354 7.94704,-4.99238 l 0.47547,0 z"
         style="font-size:69.5536499px;fill:#1761b3"
         id="path4122"
         inkscape:connector-curvature="0" />
      <path
         d="m 672.84956,822.44741 c 2.0603,2.26416 3.63952,5.0377 4.73767,8.32062 1.09804,3.28301 1.64709,7.00747 1.64714,11.17342 -5e-5,4.16599 -0.56042,7.89612 -1.6811,11.19039 -1.12079,3.2943 -2.68869,6.03954 -4.70371,8.23572 -2.08303,2.28677 -4.54525,4.00749 -7.38668,5.16219 -2.8415,1.1547 -6.08484,1.73205 -9.73003,1.73205 -3.55469,0 -6.78671,-0.58867 -9.69608,-1.76601 -2.90941,-1.17734 -5.38295,-2.88675 -7.42064,-5.12823 -2.03772,-2.24146 -3.60561,-4.99236 -4.7037,-8.2527 -1.09811,-3.26031 -1.64715,-6.98478 -1.64715,-11.17341 0,-4.12066 0.54338,-7.81683 1.63016,-11.08851 1.08677,-3.27161 2.67165,-6.07345 4.75465,-8.40553 1.99241,-2.21879 4.46595,-3.91688 7.42064,-5.09426 2.95465,-1.17729 6.17535,-1.76596 9.66212,-1.76602 3.62255,6e-5 6.87721,0.59439 9.764,1.783 2.8867,1.18871 5.33761,2.88113 7.35271,5.07728 z m -0.61131,19.49404 c -4e-5,-6.56591 -1.47172,-11.63186 -4.41502,-15.19788 -2.94339,-3.56594 -6.96219,-5.34893 -12.05642,-5.34898 -5.13957,5e-5 -9.17535,1.78304 -12.10736,5.34898 -2.93205,3.56602 -4.39806,8.63197 -4.39805,15.19788 -10e-6,6.63388 1.4943,11.71115 4.48295,15.23184 2.98862,3.52071 6.9961,5.28106 12.02246,5.28105 5.0263,10e-6 9.02812,-1.76034 12.00547,-5.28105 2.97727,-3.52069 4.46593,-8.59796 4.46597,-15.23184 z"
         style="font-size:69.5536499px;fill:#1761b3"
         id="path4124"
         inkscape:connector-curvature="0" />
    </g>
    <g
       transform="matrix(0.99591505,0,0,1.0041017,6.5329616,0)"
       style="font-size:82.80622101px;font-style:normal;font-variant:normal;font-weight:normal;font-stretch:normal;text-align:center;line-height:125%;letter-spacing:0px;word-spacing:0px;text-anchor:middle;fill:#1761b3;fill-opacity:1;stroke:none;font-family:MS Reference Sans Serif;-inkscape-font-specification:MS Reference Sans Serif"
       id="text4063">
      <path
         d="m 407.14841,885.13461 c -3.58004,1.64595 -7.31375,3.02698 -11.20113,4.14309 -3.88748,1.11611 -7.66499,1.67417 -11.33254,1.67417 -4.71718,0 -9.04474,-0.65198 -12.98269,-1.95593 -3.938,-1.30396 -7.29349,-3.26073 -10.06649,-5.87033 -2.83367,-2.66855 -5.00903,-5.97434 -6.52609,-9.91739 -1.51708,-3.94301 -2.27561,-8.53928 -2.27561,-13.78882 0,-9.64822 2.83703,-17.28242 8.51109,-22.90261 5.67404,-5.62009 13.45396,-8.43017 23.33979,-8.43023 3.41316,6e-5 6.90595,0.41155 10.4784,1.23446 3.57235,0.82304 7.57813,2.29336 12.01736,4.41096 l 0,10.59843 -1.94835,0 c -0.9536,-0.73785 -2.19774,-1.61431 -3.73245,-2.62939 -1.53481,-1.01498 -3.02239,-1.85101 -4.46276,-2.50809 -1.79256,-0.80355 -3.81588,-1.46943 -6.06996,-1.99763 -2.25417,-0.5281 -4.79722,-0.79218 -7.62915,-0.79223 -6.33112,5e-5 -11.34014,2.0339 -15.02708,6.10155 -3.68697,4.06774 -5.53045,9.62682 -5.53044,16.67723 -10e-6,7.4447 1.92686,13.20131 5.78062,17.26983 3.85372,4.06855 9.10955,6.10282 15.7675,6.10282 2.50174,0 4.96939,-0.24217 7.40298,-0.72653 2.4335,-0.48434 4.41344,-1.04408 5.93982,-1.67922 l 0,-13.14064 -15.81931,0 0,-8.51614 25.36649,0 z"
         style="font-weight:bold;fill:#1761b3;-inkscape-font-specification:MS Reference Sans Serif Bold"
         id="path4097"
         inkscape:connector-curvature="0" />
      <path
         d="m 466.72097,865.2872 c -5e-5,4.3499 -0.48356,8.16532 -1.45052,11.44625 -0.96707,3.28096 -2.58438,6.04175 -4.85193,8.28239 -2.11434,2.08566 -4.58747,3.60946 -7.41941,4.57142 -2.83201,0.96197 -6.11295,1.44295 -9.84284,1.44295 -3.83271,0 -7.17557,-0.50752 -10.02858,-1.52255 -2.85305,-1.01503 -5.26006,-2.51651 -7.22103,-4.50446 -2.25919,-2.28612 -3.87018,-5.00227 -4.83297,-8.14845 -0.96281,-3.14616 -1.44422,-7.00201 -1.44421,-11.56755 l 0,-36.1317 9.63057,0 0,36.52844 c -2e-5,3.15883 0.20846,5.62396 0.62544,7.3954 0.41695,1.77147 1.10641,3.35888 2.06839,4.76222 1.08998,1.60721 2.55819,2.81429 4.40464,3.62125 1.8464,0.80698 4.11232,1.21047 6.79775,1.21046 2.70391,10e-6 4.97403,-0.39758 6.81039,-1.19277 1.83628,-0.79517 3.31207,-2.01067 4.42738,-3.64652 0.9535,-1.39492 1.6417,-3.03455 2.0646,-4.9189 0.42281,-1.88431 0.63424,-4.22899 0.63429,-7.03403 l 0,-36.72555 9.62804,0 z"
         style="font-weight:bold;fill:#1761b3;-inkscape-font-specification:MS Reference Sans Serif Bold"
         id="path4099"
         inkscape:connector-curvature="0" />
      <path
         d="m 529.63429,889.80206 -9.9136,0 -5.78946,-16.45106 -24.22425,0 -5.78694,16.45106 -9.50421,0 21.72753,-60.64656 11.75076,0 z m -18.3514,-24.808 -9.46378,-27.36285 -9.48906,27.36285 z"
         style="font-weight:bold;fill:#1761b3;-inkscape-font-specification:MS Reference Sans Serif Bold"
         id="path4101"
         inkscape:connector-curvature="0" />
      <path
         d="m 581.64341,829.1555 -20.77231,34.1606 0,26.48596 -9.62804,0 0,-25.6394 -20.85318,-35.00716 10.08291,0 15.6222,26.40257 15.77381,-26.40257 z"
         style="font-weight:bold;fill:#1761b3;-inkscape-font-specification:MS Reference Sans Serif Bold"
         id="path4103"
         inkscape:connector-curvature="0" />
      <path
         d="m 637.50881,889.80206 -9.9136,0 -5.78946,-16.45106 -24.22426,0 -5.78693,16.45106 -9.50422,0 21.72753,-60.64656 11.75076,0 z m -18.35141,-24.808 -9.46378,-27.36285 -9.48906,27.36285 z"
         style="font-weight:bold;fill:#1761b3;-inkscape-font-specification:MS Reference Sans Serif Bold"
         id="path4105"
         inkscape:connector-curvature="0" />
      <path
         d="m 691.50418,836.2009 c 2.48993,2.73769 4.39364,6.07549 5.71113,10.01342 1.31737,3.93802 1.97608,8.36582 1.97615,13.28342 -7e-5,4.93113 -0.67184,9.37199 -2.01532,13.32258 -1.34361,3.95063 -3.23426,7.25431 -5.67196,9.91107 -2.50182,2.74438 -5.46731,4.8136 -8.89646,6.20769 -3.42924,1.39408 -7.34237,2.09113 -11.73939,2.09113 -4.29769,0 -8.20071,-0.70968 -11.70906,-2.12904 -3.5084,-1.41935 -6.48736,-3.47595 -8.9369,-6.16978 -2.46472,-2.71067 -4.35368,-6.01562 -5.6669,-9.91486 -1.31322,-3.89921 -1.96983,-8.33881 -1.96983,-13.31879 0,-4.89233 0.6486,-9.2898 1.94583,-13.19244 1.2972,-3.90256 3.20681,-7.26647 5.72881,-10.09176 2.40236,-2.67524 5.39059,-4.7251 8.96469,-6.14956 3.57406,-1.42435 7.45518,-2.13656 11.64336,-2.13662 4.34817,6e-5 8.26887,0.719 11.76213,2.15683 3.49318,1.43795 6.45108,3.47685 8.87372,6.11671 z m -2.25917,23.29684 c -6e-5,-7.47497 -1.64516,-13.20588 -4.93532,-17.19276 -3.29026,-3.98678 -7.75723,-5.9802 -13.40093,-5.98025 -5.70441,5e-5 -10.19328,1.99094 -13.46662,5.97267 -3.27338,3.98183 -4.91006,9.71527 -4.91005,17.20034 -1e-5,7.57442 1.66573,13.32428 4.99723,17.24961 3.33147,3.92535 7.79128,5.88802 13.37944,5.88801 5.57631,10e-6 10.02644,-1.96477 13.35039,-5.89433 3.32385,-3.92954 4.9858,-9.6773 4.98586,-17.24329 z"
         style="font-weight:bold;fill:#1761b3;-inkscape-font-specification:MS Reference Sans Serif Bold"
         id="path4107"
         inkscape:connector-curvature="0" />
      <path
         d="m 757.51315,865.2872 c -6e-5,4.3499 -0.48357,8.16532 -1.45053,11.44625 -0.96707,3.28096 -2.58437,6.04175 -4.85193,8.28239 -2.11434,2.08566 -4.58747,3.60946 -7.4194,4.57142 -2.83201,0.96197 -6.11296,1.44295 -9.84284,1.44295 -3.83271,0 -7.17557,-0.50752 -10.02858,-1.52255 -2.85305,-1.01503 -5.26006,-2.51651 -7.22103,-4.50446 -2.25919,-2.28612 -3.87018,-5.00227 -4.83298,-8.14845 -0.96281,-3.14616 -1.44421,-7.00201 -1.4442,-11.56755 l 0,-36.1317 9.63057,0 0,36.52844 c -2e-5,3.15883 0.20846,5.62396 0.62544,7.3954 0.41694,1.77147 1.10641,3.35888 2.06839,4.76222 1.08997,1.60721 2.55819,2.81429 4.40464,3.62125 1.8464,0.80698 4.11231,1.21047 6.79775,1.21046 2.7039,10e-6 4.97403,-0.39758 6.81038,-1.19277 1.83629,-0.79517 3.31208,-2.01067 4.42739,-3.64652 0.95349,-1.39492 1.64169,-3.03455 2.06459,-4.9189 0.42282,-1.88431 0.63425,-4.22899 0.63429,-7.03403 l 0,-36.72555 9.62805,0 z"
         style="font-weight:bold;fill:#1761b3;-inkscape-font-specification:MS Reference Sans Serif Bold"
         id="path4109"
         inkscape:connector-curvature="0" />
      <path
         d="m 794.69606,889.80206 -25.0885,0 0,-7.64431 7.73023,0 0,-45.35794 -7.73023,0 0,-7.64431 25.0885,0 0,7.64431 -7.73023,0 0,45.35794 7.73023,0 z"
         style="font-weight:bold;fill:#1761b3;-inkscape-font-specification:MS Reference Sans Serif Bold"
         id="path4111"
         inkscape:connector-curvature="0" />
      <path
         d="m 846.3236,889.80206 -39.12118,0 0,-60.64656 9.62804,0 0,52.05208 29.49314,0 z"
         style="font-weight:bold;fill:#1761b3;-inkscape-font-specification:MS Reference Sans Serif Bold"
         id="path4113"
         inkscape:connector-curvature="0" />
    </g>
    <path
       style="fill:#1761b3;fill-opacity:1;stroke:none"
       d="m 673.00848,877.81525 6.80593,-6.57662 21.59117,22.34397 -6.80593,6.57662 z"
       id="rect4067"
       inkscape:connector-curvature="0" />
  </g>
</svg>
